<svg xmlns="http://www.w3.org/2000/svg" xmlns:xlink="http://www.w3.org/1999/xlink" width="408.588" height="214.021" viewBox="0 0 408.588 214.021">
  <defs>
    <clipPath id="clip-path">
      <path id="Path_28499" data-name="Path 28499" d="M-3258.252,458.575c-27.973-28.154-88.4-13-91.436-87.6s-132.869-77.179-172.4-4.568S-3687.4,408.6-3627.254,527.482l361.66-.915S-3230.279,486.728-3258.252,458.575Z" transform="translate(3643.27 -313.461)" fill="#ebf3fa"/>
    </clipPath>
  </defs>
  <g id="Group_20815" data-name="Group 20815" transform="translate(-484.412 -1242.095)">
    <g id="Group_20702" data-name="Group 20702" transform="translate(492.135 1242.095)">
      <path id="Path_28497" data-name="Path 28497" d="M-3258.252,458.575c-27.973-28.154-88.4-13-91.436-87.6s-132.869-77.179-172.4-4.568S-3687.4,408.6-3627.254,527.482l361.66-.915S-3230.279,486.728-3258.252,458.575Z" transform="translate(3643.27 -313.461)" fill="#fff4f4"/>
      <g id="Group_20701" data-name="Group 20701" transform="translate(0)" clip-path="url(#clip-path)">
        <g id="Group_20700" data-name="Group 20700" transform="translate(151.325 -11.742)">
          <g id="Group_20696" data-name="Group 20696" transform="translate(8.694)">
            <rect id="Rectangle_13159" data-name="Rectangle 13159" width="1.591" height="51.773" fill="#699ff0"/>
            <rect id="Rectangle_13160" data-name="Rectangle 13160" width="1.591" height="51.773" transform="translate(87.861)" fill="#699ff0"/>
          </g>
          <rect id="Rectangle_13161" data-name="Rectangle 13161" width="106.838" height="60.946" transform="translate(0 50.181)" fill="#26275d"/>
          <g id="Group_20697" data-name="Group 20697" transform="translate(6.536 60.776)">
            <rect id="Rectangle_13162" data-name="Rectangle 13162" width="5.874" height="9.708" fill="#fff"/>
            <rect id="Rectangle_13163" data-name="Rectangle 13163" width="5.874" height="9.708" transform="translate(7.668)" fill="#fff"/>
            <rect id="Rectangle_13164" data-name="Rectangle 13164" width="77.826" height="1.224" transform="translate(15.051 8.484)" fill="#fff"/>
            <rect id="Rectangle_13165" data-name="Rectangle 13165" width="77.826" height="1.224" transform="translate(15.051 5.67)" fill="#fff"/>
            <rect id="Rectangle_13166" data-name="Rectangle 13166" width="68.587" height="1.224" transform="translate(15.051 2.692)" fill="#fff"/>
            <rect id="Rectangle_13167" data-name="Rectangle 13167" width="62.02" height="1.224" transform="translate(15.051)" fill="#fff"/>
          </g>
          <g id="Group_20698" data-name="Group 20698" transform="translate(6.536 76.684)">
            <rect id="Rectangle_13168" data-name="Rectangle 13168" width="5.874" height="9.708" fill="#fff"/>
            <rect id="Rectangle_13169" data-name="Rectangle 13169" width="5.874" height="9.708" transform="translate(7.668)" fill="#fff"/>
            <rect id="Rectangle_13170" data-name="Rectangle 13170" width="77.826" height="1.224" transform="translate(15.051 8.484)" fill="#fff"/>
            <rect id="Rectangle_13171" data-name="Rectangle 13171" width="77.826" height="1.224" transform="translate(15.051 5.67)" fill="#fff"/>
            <rect id="Rectangle_13172" data-name="Rectangle 13172" width="68.587" height="1.224" transform="translate(15.051 2.692)" fill="#fff"/>
            <rect id="Rectangle_13173" data-name="Rectangle 13173" width="62.02" height="1.224" transform="translate(15.051)" fill="#fff"/>
          </g>
          <g id="Group_20699" data-name="Group 20699" transform="translate(6.536 92.592)">
            <rect id="Rectangle_13174" data-name="Rectangle 13174" width="5.874" height="9.708" fill="#fff"/>
            <rect id="Rectangle_13175" data-name="Rectangle 13175" width="5.874" height="9.708" transform="translate(7.668)" fill="#fff"/>
            <rect id="Rectangle_13176" data-name="Rectangle 13176" width="77.826" height="1.224" transform="translate(15.051 8.484)" fill="#fff"/>
            <rect id="Rectangle_13177" data-name="Rectangle 13177" width="77.826" height="1.224" transform="translate(15.051 5.67)" fill="#fff"/>
            <rect id="Rectangle_13178" data-name="Rectangle 13178" width="68.587" height="1.224" transform="translate(15.051 2.692)" fill="#fff"/>
            <rect id="Rectangle_13179" data-name="Rectangle 13179" width="62.02" height="1.224" transform="translate(15.051)" fill="#fff"/>
          </g>
          <rect id="Rectangle_13180" data-name="Rectangle 13180" width="52.741" height="11.268" transform="translate(6.536 38.913)" fill="#b51414"/>
          <rect id="Rectangle_13181" data-name="Rectangle 13181" width="8.811" height="8.811" transform="translate(48.753 40.014)" fill="#fff"/>
          <path id="Path_28498" data-name="Path 28498" d="M-2334.437,505.925h0a.46.46,0,0,0,.135.325l2.094,2.094-2.094,2.094a.46.46,0,0,0-.135.325v.074a.46.46,0,0,0,.785.325l2.207-2.207a.812.812,0,0,0,0-1.149l-2.207-2.207A.46.46,0,0,0-2334.437,505.925Z" transform="translate(2385.981 -463.962)" fill="#e21f26"/>
        </g>
      </g>
    </g>
    <g id="Group_20705" data-name="Group 20705" transform="translate(797.696 1333.814)">
      <g id="Group_20703" data-name="Group 20703" transform="translate(0 0)">
        <path id="Path_28500" data-name="Path 28500" d="M-1397.406,1608.791a63.809,63.809,0,0,1-5.451-7.068l-3.306-6.1-4.327,1.07,5.492,7.783,5.737,4.854Z" transform="translate(1451.01 -1488.603)" fill="#ffb27d"/>
        <path id="Path_28501" data-name="Path 28501" d="M-1645.668,906.1a5.6,5.6,0,0,0-3.031-.58,1.419,1.419,0,0,1,.639-.3,4.7,4.7,0,0,0-1.677.437c-7.217-2.781-8.351,7.845-8.2,10.314s-2.425,3.275-6.18,5.22c-7.164,3.711-7.793,8.681-7.793,8.681.056.033.114.07.176.113.355-.6,1.087-1.733,1.7-1.9a25.594,25.594,0,0,0-.992,2.417c2.114,1.608,6.067,5.17,8.823,7.7a4.053,4.053,0,0,1,.188-1.565l.34,2.05c1.475,1.355,2.491,2.309,2.491,2.309-.182-1.995,9.022-12.523,13.825-15.676a13.884,13.884,0,0,0,1.616-5,13.128,13.128,0,0,1-.983,4.524C-1640.655,921.095-1643.022,907.607-1645.668,906.1Z" transform="translate(1671.909 -905.198)" fill="#2a2d31"/>
        <path id="Path_28502" data-name="Path 28502" d="M-1539.489,997.232a6.654,6.654,0,0,1-4.081.745,5.3,5.3,0,0,1-2.718-2.606c.7-.139.9-1.1.89-5.249l.317.062,5.336,1.057s-.121,1.679-.125,3.261C-1539.874,995.83-1539.793,997.09-1539.489,997.232Z" transform="translate(1565.76 -976.959)" fill="#ea9d67"/>
        <path id="Path_28503" data-name="Path 28503" d="M-1541.353,915.242a4.265,4.265,0,0,1,5.937-.143A23.127,23.127,0,0,0-1541.353,915.242Z" transform="translate(1561.589 -912.596)" fill="#2a2d31"/>
        <path id="Path_28504" data-name="Path 28504" d="M-1552.882,927.008a15.694,15.694,0,0,1-1.94-4.586c-.268-1.509.5-7.1,6.123-6.3a7.638,7.638,0,0,1,3.168,1.2c1.22.824,2.982,2.6,1.012,7.486l-.511,1.649Z" transform="translate(1573.01 -914.363)" fill="#e21f26"/>
        <path id="Path_28505" data-name="Path 28505" d="M-1531.984,1287.6l-2.828.087-3.061.094a60.431,60.431,0,0,1-11.038-20.495q-.139-.44-.293-.891c-2.171-6.33-6.671-14.275-9.043-21.467-.377-1.146-.716-2.224-1.021-3.244-.1-.327-.192-.648-.282-.964a76.3,76.3,0,0,1-2.72-14.32l17.125.137A319.24,319.24,0,0,0-1531.984,1287.6Z" transform="translate(1579.265 -1176.615)" fill="#33373e"/>
        <path id="Path_28506" data-name="Path 28506" d="M-1547.077,1054.452a23.012,23.012,0,0,1-16.047.983c-.1-.032.576-33.685,3.047-34.612a5.368,5.368,0,0,0,3.76,1.382c1.736-.038,2.3-.781,2.209-1.593,1.85,1.029,3.326,2,3.326,2C-1549.21,1025.346-1547.077,1054.452-1547.077,1054.452Z" transform="translate(1579.994 -1002.724)" fill="#e21f26"/>
        <path id="Path_28507" data-name="Path 28507" d="M-1593.643,1092.452c-.749,1.059-2.184,7.5-5.755,8.309,1.84-4.59,3.237-6.6,3.455-8.013a34.817,34.817,0,0,0,.212-7.931c1.2-2.095,2.087-3.531,2.087-3.531.094-.339,1.9-5.922,2.478-.931A23.06,23.06,0,0,1-1593.643,1092.452Z" transform="translate(1610.637 -1051.461)" fill="#5f9aa8"/>
        <path id="Path_28508" data-name="Path 28508" d="M-1536.614,942.02s-7.064.116-7.069-4.284-.92-7.349,3.59-7.61,5.389,1.418,5.747,2.886S-1534.776,941.876-1536.614,942.02Z" transform="translate(1563.625 -926.24)" fill="#ffb27d"/>
        <path id="Path_28509" data-name="Path 28509" d="M-1549.258,924.7s-1.934,5.163-4.9,5.926-4.256-.032-4.256-.032a8.406,8.406,0,0,0,2.75-4.966S-1550.717,922.245-1549.258,924.7Z" transform="translate(1576.008 -920.923)" fill="#2a2d31"/>
        <path id="Path_28510" data-name="Path 28510" d="M-1502.421,927.692a6.242,6.242,0,0,1,1.8,2.273c.352,1.121.51,3.427,1.183,3.349,0,0,1.457-3.509-.181-5.494C-1501.359,925.716-1502.421,927.692-1502.421,927.692Z" transform="translate(1528.692 -923.494)" fill="#2a2d31"/>
        <path id="Path_28511" data-name="Path 28511" d="M-1314.242,1037.054a4.41,4.41,0,0,1,4.942-3.082c.453.142,1.776.67.931,2.086-.624,1.044-.894.505-1.874,1.909a3.124,3.124,0,0,1-3.261,1.552Z" transform="translate(1369.68 -1013.971)" fill="#ffb27d"/>
        <path id="Path_28512" data-name="Path 28512" d="M-1561.878,1612.008c-.241-1.322-.7-3.609-.7-3.609l.106-8.113h-4.928l1.844,7.766a7.9,7.9,0,0,1-.379,3.243s-.473,2.156,1.65,2.2S-1561.638,1613.33-1561.878,1612.008Z" transform="translate(1583.597 -1492.547)" fill="#ffb27d"/>
        <path id="Path_28513" data-name="Path 28513" d="M-1554.944,1674.259h-4.416a11.886,11.886,0,0,1,.161-3.247c2.4,2.329,3.909-.058,3.909-.058A12.03,12.03,0,0,1-1554.944,1674.259Z" transform="translate(1576.863 -1552.261)" fill="#233862"/>
        <path id="Path_28514" data-name="Path 28514" d="M-1373.774,1652.075h-5.444a9.077,9.077,0,0,1-1.476-2.435,2.631,2.631,0,0,0-1.773-1.214v3.649h-1.128l-1.035-3.881c-.694-1.306-.163-2.48.325-3.512.568,0,2.2.388,5.093,3.727a3.752,3.752,0,0,0,3.042,1.454.277.277,0,0,0,.043.023A4.059,4.059,0,0,1-1373.774,1652.075Z" transform="translate(1429.44 -1530.062)" fill="#233862"/>
        <path id="Path_28515" data-name="Path 28515" d="M-1475.354,1025.807s-4.637,2.593-6.294,3.34c-.944.426-3.117,1.444-4.649,2.163a2.39,2.39,0,0,1-2.832-.61c-2.514-2.937-9.058-9.306-15.779-10.087,0,0,4.087,10.1,4.208,12.141s.481,33.416.481,33.416-.24,1.442,2.524.841a9.286,9.286,0,0,0,3.486-1.2s-2.645-19.353-1.923-26.084a15,15,0,0,0-.286-4.359,34.427,34.427,0,0,0,8.94,3.6,50.2,50.2,0,0,0,8.574-5.209c1.554-1.139,4.286-5.483,4.286-5.483Z" transform="translate(1530.792 -1002.724)" fill="#e2e2e2"/>
        <path id="Path_28516" data-name="Path 28516" d="M-1519.983,1355.32l-3.061.094a60.432,60.432,0,0,1-11.038-20.495q-.139-.44-.293-.891c-2.171-6.33-6.671-14.275-9.043-21.467-.377-1.146-.716-2.224-1.021-3.244-.1-.327-.192-.648-.282-.964l2.522-1.914s7.572,12.261,9.916,23.8C-1530.248,1340.261-1522.094,1352.321-1519.983,1355.32Z" transform="translate(1564.436 -1244.247)" fill="#212326"/>
        <path id="Path_28517" data-name="Path 28517" d="M-1598.255,1313.574c.043,5.611-.24,18.511-.971,23.852h-2.712c-1.5,0-2.247-.022-2.247-.022-1.833-9.285-3.137-16.969-4.087-23.59-.779-5.433-1.471-10.091-2-14.1-.536-4.035-.909-7.414-1.042-10.269-.02-.45-.036-.887-.044-1.311s-.011-.841-.007-1.244l14.8-1.442C-1596.758,1295.278-1598.279,1310.313-1598.255,1313.574Z" transform="translate(1620.754 -1226.508)" fill="#212326"/>
        <path id="Path_28518" data-name="Path 28518" d="M-1601.648,1359.221c-1.5,0-2.247-.022-2.247-.022-1.833-9.286-3.137-16.969-4.087-23.59-.779-5.433-1.471-10.091-2-14.1-.536-4.035-.909-7.414-1.042-10.269l5.43,3.194s-3.466,1.222-2.143,10.478S-1603.488,1357.911-1601.648,1359.221Z" transform="translate(1620.464 -1248.303)" fill="#33373e"/>
        <path id="Path_28519" data-name="Path 28519" d="M-1618.963,1066.713s-1.041,3.765-4.647,3.284a43.388,43.388,0,0,1-8.735-2.644s1.542-4.869,3.457-11.267c.021-.067.04-.135.061-.2,2.261-7.554,5.024-17.169,6.4-23.426.029-.133.057-.266.086-.4a38.861,38.861,0,0,0,.736-4.294l3.047-5.8s4.405,10.007,4.646,12.532S-1618.963,1066.713-1618.963,1066.713Z" transform="translate(1638.477 -1003.868)" fill="#e2e2e2"/>
        <path id="Path_28520" data-name="Path 28520" d="M-1603.6,1034.125l4-12.155a60.294,60.294,0,0,0-7.545,2.741s-1.564,2.017-2.533,6.671c0,0-1.023,11.173,1.261,15.26,0,0,7.212,1.443,18.751-2.524v-2.644s-12.621.661-15.206.962Z" transform="translate(1619.512 -1003.87)" fill="#ffb27d"/>
        <path id="Path_28521" data-name="Path 28521" d="M-1600.289,1096.972c-.159,4.032-1.1,11.809-9.358,16.1,2.261-7.554,5.024-17.169,6.4-23.426C-1601.751,1091.94-1600.208,1094.845-1600.289,1096.972Z" transform="translate(1619.298 -1061.052)" fill="#d1d1d1"/>
        <path id="Path_28522" data-name="Path 28522" d="M-1601.684,1021.97s-7.374.511-9.137,4.438-2.324,16.989-.08,20.835c0,0,3.089.88,8.553-.142l.2-.038s1.743-4.267.18-5.109c0,0-4.608.24-4.127-1.282S-1601.684,1021.97-1601.684,1021.97Z" transform="translate(1621.601 -1003.87)" fill="#e2e2e2"/>
        <path id="Path_28523" data-name="Path 28523" d="M-1487.663,1125a6.309,6.309,0,0,0,1.22-2.463,2.677,2.677,0,0,1,2.615-2.395c1.736-.228,2.482-.253,2.477.236a12.951,12.951,0,0,1-3.908,5.944C-1487.749,1128.362-1487.663,1125-1487.663,1125Z" transform="translate(1516.221 -1086.693)" fill="#ffb27d"/>
      </g>
      <rect id="Rectangle_13182" data-name="Rectangle 13182" width="19.262" height="13.575" rx="6.788" transform="translate(6.133 53.719)" fill="#c7131a"/>
      <g id="Group_20704" data-name="Group 20704" transform="translate(2.523 53.719)">
        <path id="Path_28524" data-name="Path 28524" d="M-1655.634,1289.511v2.984a4.742,4.742,0,0,0,4.742,4.742h9.779a4.742,4.742,0,0,0,4.742-4.742v-2.719l-9.631,1.77Z" transform="translate(1655.634 -1283.661)" fill="#e21f26"/>
        <path id="Path_28525" data-name="Path 28525" d="M-1636.371,1256.514a4.742,4.742,0,0,0-4.742-4.742h-9.779a4.742,4.742,0,0,0-4.742,4.742l9.631,2.046Z" transform="translate(1655.634 -1251.772)" fill="#e21f26"/>
        <path id="Path_28526" data-name="Path 28526" d="M-1646,1284.41l-9.631-2.046v1.108l9.631,2.036,9.631-1.77v-1.373Z" transform="translate(1655.634 -1277.623)" fill="#c7131a"/>
      </g>
      <path id="Path_28527" data-name="Path 28527" d="M-1566.232,1148.444c-.306-.66-2.221-.4-2.221-.4,4.448,1.065,7.259,20.775,7.259,20.775h.888C-1561.948,1155.789-1565.926,1149.1-1566.232,1148.444Z" transform="translate(1584.489 -1110.363)" fill="#c7131a"/>
      <path id="Path_28528" data-name="Path 28528" d="M-1640,1175.972l4.665-14.621.326,1.638-4.066,12.585Z" transform="translate(1644.945 -1121.647)" fill="#c7131a"/>
    </g>
    <g id="Group_20707" data-name="Group 20707" transform="translate(616.905 1318.7)">
      <path id="Path_28529" data-name="Path 28529" d="M-2832.006,1158.908a7.412,7.412,0,0,0-2.659-.417,12.393,12.393,0,0,0-3.613,1.7.981.981,0,0,0,0,.462h6.272s1.4-.272,1.641-1.1S-2832.006,1158.908-2832.006,1158.908Z" transform="translate(2838.304 -1104.087)" fill="#ffb27d"/>
      <path id="Path_28530" data-name="Path 28530" d="M-2723.572,1605.47a1.2,1.2,0,0,1-.784,1.042.009.009,0,0,1-.007,0,8,8,0,0,1-3.75.079c-.194-.026-.368-.047-.524-.061-.041,0-.082-.008-.122-.01l-.094-.007c-1.507-.1-1.389.365-4.27.351-3.284-.018-4.394-1.123-4.545-1.595-.126-.4,1.311-.71,2.919-1.068l.234-.052.643-.146c1.917-.45,3.814-1.017,4.441-2.858.666-1.952.508-7.746.508-7.746h5.815s-1.527,6.4-1.367,8.245c.087.985.558,1.265.74,2.118.013.06.025.12.036.179A5.723,5.723,0,0,1-2723.572,1605.47Z" transform="translate(2753.273 -1471.616)" fill="#ad7041"/>
      <g id="Group_20706" data-name="Group 20706" transform="translate(21.03 50.317)">
        <path id="Path_28531" data-name="Path 28531" d="M-2687.189,1153.226c-.49,2.755-1.19,5.6-1.8,8.563a44.319,44.319,0,0,0-.959,15.265,19.034,19.034,0,0,1,.16,2.306c.147,9.626-4.155,27.071-4.155,27.071a7.594,7.594,0,0,1-3.126.407,9.925,9.925,0,0,1-2.555-.7s-.407-10.816-.432-25.361c-.018-10.544-2.088-24.426-2.506-32.583a104.391,104.391,0,0,1,.3-11.514s8.573-6.894,11.653-3.367C-2687.568,1136.8-2685.353,1142.92-2687.189,1153.226Z" transform="translate(2702.627 -1132.309)" fill="#415da5"/>
      </g>
      <path id="Path_28532" data-name="Path 28532" d="M-2662.7,1272.257a18.985,18.985,0,0,1,.16,2.306c-6.421-9.3-7.841-29.589-7.841-29.589l7.052,3.423s.773,3.8,1.588,8.594A44.319,44.319,0,0,0-2662.7,1272.257Z" transform="translate(2696.406 -1177.195)" fill="#355493"/>
      <path id="Path_28533" data-name="Path 28533" d="M-2603.9,1603.5a1.2,1.2,0,0,1-.785,1.042.009.009,0,0,1-.007,0,8,8,0,0,1-3.75.079c-.194-.026-.368-.047-.525-.061-.041,0-.082-.008-.122-.01l-.094-.007c-1.507-.1-1.389.365-4.27.351-3.283-.018-4.394-1.123-4.544-1.595-.127-.4,1.311-.71,2.918-1.067l.234-.052.643-.146c1.916-.45,3.814-1.017,4.441-2.858.666-1.953-.285-7.657-.285-7.657l5.387-.45s-.334,6.5-.175,8.344a15.977,15.977,0,0,0,.769,2.38q.02.09.036.179A5.721,5.721,0,0,1-2603.9,1603.5Z" transform="translate(2652.147 -1469.648)" fill="#ad7041"/>
      <path id="Path_28534" data-name="Path 28534" d="M-2656.739,1245.74a13.074,13.074,0,0,1-2.382.855,11.453,11.453,0,0,1-3.069-.19,140.376,140.376,0,0,0-2.928-18.13,169.636,169.636,0,0,0-8.764-27.774c-.851-2.011-4.361-11.53-4.956-13.932-1.8-7.258.007-6.476.007-6.476l15.742-1.847s1.939,1,2.833,11.246c.267,3.069.3,16.323.7,18.835a28.123,28.123,0,0,0,1.352,5.643C-2655.277,1221.147-2656.739,1245.74-2656.739,1245.74Z" transform="translate(2704.23 -1120.808)" fill="#415da5"/>
      <path id="Path_28535" data-name="Path 28535" d="M-2603.9,1661.969a1.2,1.2,0,0,1-.785,1.042.009.009,0,0,1-.007,0,9.263,9.263,0,0,1-3.747.07c-.194-.023-.369-.04-.528-.052-.041,0-.082-.008-.122-.01l-.094-.007c-1.507-.1-1.389.365-4.27.351-3.283-.017-4.394-1.123-4.544-1.595-.127-.4,1.311-.71,2.918-1.068a9.693,9.693,0,0,0,4.96.88c2.211-.212,4.468-1.1,6.054-1.318q.02.09.036.179A5.722,5.722,0,0,1-2603.9,1661.969Z" transform="translate(2652.147 -1528.114)" fill="#b84c42"/>
      <path id="Path_28536" data-name="Path 28536" d="M-2723.572,1661.969a1.2,1.2,0,0,1-.784,1.042.009.009,0,0,1-.007,0,9.262,9.262,0,0,1-3.746.07c-.194-.023-.369-.04-.528-.052-.041,0-.082-.008-.122-.01l-.094-.007c-1.507-.1-1.389.365-4.27.351-3.284-.017-4.394-1.123-4.545-1.595-.126-.4,1.311-.71,2.919-1.068a9.691,9.691,0,0,0,4.96.88c2.211-.212,4.468-1.1,6.054-1.318q.02.09.036.179A5.722,5.722,0,0,1-2723.572,1661.969Z" transform="translate(2753.273 -1528.114)" fill="#b84c42"/>
      <path id="Path_28537" data-name="Path 28537" d="M-2696.243,817.983c-.532-4.343.824-11.291,9.492-10.181s11.4,9.628,9.651,13.416,2.516,4.7,3.855,8.774c1.15,3.5,1.551,7.843,3.412,9.793,6,6.286-5.761,15.952-12.851,13.914-12.913-3.713-14.577-4.267-14.118-14.413.235-5.2,4.28-7.213,1.712-8.717C-2701.294,826.934-2695.04,827.809-2696.243,817.983Z" transform="translate(2719.646 -807.684)" fill="#2a2d31"/>
      <path id="Path_28538" data-name="Path 28538" d="M-2660.268,904.8l-2.383,6.168-5.159.252-2.569-3.848c2.915-2.21,2.791-6.438,2.648-7.915-.033-.333-.065-.526-.065-.526l6.449-1.963c.078,1.7.173,3.038.276,4.081C-2660.711,904.716-2660.268,904.8-2660.268,904.8Z" transform="translate(2696.407 -883.132)" fill="#ffb27d"/>
      <path id="Path_28539" data-name="Path 28539" d="M-2700.042,944.595c.332,0,5.96-1.145,15.466,1.286,0,0-5.206,23.851-3.437,28.346a47.478,47.478,0,0,1,2.44,8.485l-19.185.238s.268-15.43-.616-20.891S-2700.042,944.595-2700.042,944.595Z" transform="translate(2726.052 -923.146)" fill="#ffb27d"/>
      <path id="Path_28540" data-name="Path 28540" d="M-2691.362,972.668c.281,3.157,3.23,10.371,2.592,11.908a4.432,4.432,0,0,1-3.63,2.9,37.576,37.576,0,0,1-6.051.614c-5.78.287-11.973-.439-12.816-3.187-.4-1.318-.248-6.421-.034-8.777.443-4.875-.485-11.87-.621-16.4-.112-3.775,2.165-12.367,2.165-12.367a14.4,14.4,0,0,1,4.251-1.3s.339,4.463,2.668,4.847c4.026.665,7.271-3.024,8.219-4.509,0,0,4.625,1.167,5.982,2.714,1.286,1.465-.473,12.319-.864,13.36-.338.893-.657,1.765-.935,2.641A18.428,18.428,0,0,0-2691.362,972.668Z" transform="translate(2731.515 -924.615)" fill="#fff"/>
      <path id="Path_28541" data-name="Path 28541" d="M-2482.075,1159.028a7.474,7.474,0,0,1,2.659-.413,12.451,12.451,0,0,1,3.613,1.687.967.967,0,0,1,0,.458h-6.272s-1.4-.27-1.641-1.089S-2482.075,1159.028-2482.075,1159.028Z" transform="translate(2538.695 -1104.193)" fill="#ffb27d"/>
      <path id="Path_28542" data-name="Path 28542" d="M-2646.99,903.689a11.49,11.49,0,0,0-6.659-1.592c-.033-.333-.065-.526-.065-.526l6.448-1.963C-2647.187,901.313-2647.092,902.646-2646.99,903.689Z" transform="translate(2682.326 -885.36)" fill="#e8945b"/>
      <path id="Path_28543" data-name="Path 28543" d="M-2671.878,842.992s7.72,1.55,8.612-3.272,2.488-7.87-2.4-9.064-6.192.469-6.881,2.006S-2673.863,842.464-2671.878,842.992Z" transform="translate(2698.806 -826.751)" fill="#ffb27d"/>
      <path id="Path_28544" data-name="Path 28544" d="M-2665.232,816.995a5.834,5.834,0,0,0-4.565-1.732c.828-1-2.5-3.2-6.311.549-1.641,1.617-1.393,4.8-.514,6.639,0,0,1.35-3.952,3.806-4.814a5.368,5.368,0,0,0,1.542-.892,10.6,10.6,0,0,0,2.112,3.137c2.539,2.776,2.044,8.388,2.044,8.388S-2662.95,819.563-2665.232,816.995Z" transform="translate(2702.266 -812.771)" fill="#2a2d31"/>
      <path id="Path_28545" data-name="Path 28545" d="M-2664.188,893.851s-.207.572-1.66.313c0,0-1.22-.218-1.108-.86A3.981,3.981,0,0,1-2664.188,893.851Z" transform="translate(2693.521 -879.983)" fill="#fff"/>
      <path id="Path_28546" data-name="Path 28546" d="M-2754.872,967.9c-2.921-11.27-4.523-17.7-6.915-19.652-2.116-1.722-6.679-1.88-6.679-1.88a23.29,23.29,0,0,0,.159,4.062l-5.613,10.7a47.034,47.034,0,0,0-3.9,11.915c-.772-6.181-1.538-11.915-1.538-11.915a64.79,64.79,0,0,1-.952-7c.677-2.61.606-5.335.924-8.063l-.353.02c-1.108.078-4.564.43-6.326,1.876-2.393,1.964-2.93,10.591-6.916,19.826,0,0-4.829,8.12-6.367,11.342a2.745,2.745,0,0,0,.864.772,4.538,4.538,0,0,0,1.263.45s8.712-8.579,9.284-9.936c.188-.446,1.243-2.011,2.551-4.312h0s.347,12.258-.414,17.548a2.743,2.743,0,0,0,1.361,2.782c5.381,3.039,21.5,11.318,24.5,3.277.336-.9-5.554-16.215-4.748-19.53.258-1.06.6-3.479.942-6.276,1.846,3.54,3.581,6.026,3.828,6.606.573,1.344,9.285,9.849,9.285,9.849a4.565,4.565,0,0,0,1.263-.446,2.732,2.732,0,0,0,.864-.765C-2750.042,975.953-2754.872,967.9-2754.872,967.9Z" transform="translate(2805.385 -924.615)" fill="#26275d"/>
      <path id="Path_28547" data-name="Path 28547" d="M-2630.155,947.841l-5.15,14.792,5.15-4.869-.389-1.514a3.612,3.612,0,0,0,1.664-.2c.48-.31,1.6-7.873,1.6-7.873s-1.048-.175-1.4-.215C-2629.048,947.914-2630.155,947.841-2630.155,947.841Z" transform="translate(2666.77 -926.117)" fill="#e21f26"/>
      <path id="Path_28548" data-name="Path 28548" d="M-2688.393,946.064s-1.084,11.693.029,15.067c0,0-3.187-5.047-2.59-6.092l1.155-.761s-2.23-.29-1.812-1.571,2.21-6.477,2.21-6.477Z" transform="translate(2714.393 -924.615)" fill="#e21f26"/>
    </g>
    <g id="Group_20708" data-name="Group 20708" transform="translate(550.536 1382.87)">
      <path id="Path_28549" data-name="Path 28549" d="M-3088.612,1470.531h-177.879V1430.2l177.879-.4Z" transform="translate(3266.491 -1397.539)" fill="#26275d"/>
      <rect id="Rectangle_13183" data-name="Rectangle 13183" width="177.879" height="10.547" transform="translate(0)" fill="#26275d"/>
    </g>
    <rect id="Rectangle_13184" data-name="Rectangle 13184" width="190.058" height="7.602" rx="3.801" transform="translate(734.388 1382.87) rotate(180)" fill="#bababa"/>
    <g id="Group_20709" data-name="Group 20709" transform="translate(651.763 1353.916)">
      <path id="Rectangle_13185" data-name="Rectangle 13185" d="M1.226,0h0A1.226,1.226,0,0,1,2.452,1.226V3.187A1.226,1.226,0,0,1,1.226,4.413h0A1.226,1.226,0,0,1,0,3.187V1.226A1.226,1.226,0,0,1,1.226,0Z" transform="translate(0 2.448) rotate(-86.477)" fill="#2b478b"/>
      <rect id="Rectangle_13186" data-name="Rectangle 13186" width="1.156" height="1.55" transform="translate(0.666 0.463) rotate(3.523)" fill="#e9f2ff"/>
      <path id="Path_28550" data-name="Path 28550" d="M-2597.52,1039.047l-1.436-.089a.194.194,0,0,1-.181-.205h0a.194.194,0,0,1,.205-.182l1.436.089a.194.194,0,0,1,.181.205h0A.194.194,0,0,1-2597.52,1039.047Z" transform="translate(2601.35 -1038.001)" fill="#e9f2ff"/>
      <path id="Path_28551" data-name="Path 28551" d="M-2597.65,1043.765l-1.675-.1a.074.074,0,0,1-.069-.078h0a.074.074,0,0,1,.078-.069l1.676.1a.074.074,0,0,1,.069.078h0A.074.074,0,0,1-2597.65,1043.765Z" transform="translate(2601.568 -1042.177)" fill="#e9f2ff"/>
      <path id="Path_28552" data-name="Path 28552" d="M-2597.746,1045.31l-1.675-.1a.074.074,0,0,1-.069-.078h0a.074.074,0,0,1,.078-.069l1.676.1a.074.074,0,0,1,.069.078h0A.074.074,0,0,1-2597.746,1045.31Z" transform="translate(2601.649 -1043.483)" fill="#e9f2ff"/>
    </g>
    <path id="Path_28553" data-name="Path 28553" d="M-3081.353,1311.443l-174.618.4v-22.112h174.618Z" transform="translate(3808.137 103.684)" fill="#fff"/>
    <path id="Path_28554" data-name="Path 28554" d="M-2657.274,790.032-2656,786.3s7.648-.8,10.218,2.692a5.993,5.993,0,0,1-.443,3.326s-6.96-1.46-9.377-.512Z" transform="translate(3302.238 529.152)" fill="#e21f26"/>
    <path id="Path_28555" data-name="Path 28555" d="M-2654,787.308s5.584.367,7.665,1.8a24.513,24.513,0,0,0-6.363-.581,41.8,41.8,0,0,1,6.971,1.783,8.294,8.294,0,0,0-.057-1.324C-2648.352,785.5-2656,786.3-2656,786.3l-1.273,3.733,1.671,1.773S-2654.994,787.981-2654,787.308Z" transform="translate(3302.238 529.152)" fill="#c6171d"/>
    <g id="Group_20712" data-name="Group 20712" transform="translate(588.545 1363.679)">
      <g id="Group_20710" data-name="Group 20710">
        <path id="Path_28556" data-name="Path 28556" d="M-2996.83,1109.46h-17.934l-6.508-11.589h17.933Z" transform="translate(3021.271 -1097.871)" fill="#26275d"/>
        <path id="Path_28557" data-name="Path 28557" d="M-3003.338,1097.872h-17.933l6.508,11.589h.214l10.772-11.22,6.394,11.22h.554Z" transform="translate(3021.271 -1097.872)" fill="#e21f26"/>
      </g>
      <g id="Group_20711" data-name="Group 20711" transform="translate(77.187)">
        <path id="Path_28558" data-name="Path 28558" d="M-2498.852,1109.46h-17.933l-6.508-11.589h17.933Z" transform="translate(2523.293 -1097.871)" fill="#26275d"/>
        <path id="Path_28559" data-name="Path 28559" d="M-2505.36,1097.871h-17.933l6.508,11.589h.213l10.772-11.22,6.394,11.22h.554Z" transform="translate(2523.293 -1097.871)" fill="#e21f26"/>
      </g>
    </g>
    <g id="Group_20714" data-name="Group 20714" transform="translate(553.53 1323.691)">
      <path id="Path_28560" data-name="Path 28560" d="M-2987.422,1158.208c-.695-.326-2.056.141-2.854.473-.373.155-.622.28-.622.28l-.823,1.57h7.625C-2984.373,1159.7-2986.472,1158.655-2987.422,1158.208Z" transform="translate(3031.318 -1108.774)" fill="#ffb27d"/>
      <path id="Path_28561" data-name="Path 28561" d="M-3087.944,1011.9c-.906-1.073-10.912-3.78-11.851-4.443s-1.213-9.109-1.213-9.109c-1.071-10.5-6.217-13.9-6.3-13.955h0s.053,1.422.14,3.579c.181,4.483.51,12.139.827,16.782a15.96,15.96,0,0,0,1.365,5.665,12.04,12.04,0,0,0,.62,1.169,9.279,9.279,0,0,0,1.753,2.162h13.249a3.32,3.32,0,0,0,1.422-1.831A.1.1,0,0,0-3087.944,1011.9Z" transform="translate(3128.985 -961.992)" fill="#e21f26"/>
      <g id="Group_20713" data-name="Group 20713" transform="translate(0)">
        <path id="Path_28562" data-name="Path 28562" d="M-3200,846.747s-.681-9.706-13.284-6.031c-2.86.834-2.488,9.469,4.438,12.756Z" transform="translate(3219.96 -839.885)" fill="#2a2d31"/>
        <path id="Path_28563" data-name="Path 28563" d="M-3153.094,966.821s4.934.893,6.764,2.723,6.147,7.227,3.43,25.224a6.435,6.435,0,0,1-6.317,5.947C-3155.315,1001.237-3153.094,966.821-3153.094,966.821Z" transform="translate(3168.01 -947.146)" fill="#b2060c"/>
        <path id="Path_28564" data-name="Path 28564" d="M-3224.331,1188.276c.849,5.906,6.54,21.256,6.375,26.561-.131,4.181-.062,13.839.49,20.255a39.446,39.446,0,0,0,.559,4.332c.49,2.366,1.117,5.092,1.456,6.809.752,3.856.358,6.105.973,8.175.676,2.263,8.438,1.849,6.1.476a6.87,6.87,0,0,1-2.649-2.877c-2.18-4.884.876-25.947,1.787-34.067.117-1.014.2-1.821.234-2.373.3-5.016,3.747-38.429,3.747-38.429C-3213.624,1172.49-3225.173,1182.371-3224.331,1188.276Z" transform="translate(3227.909 -1123.846)" fill="#ffb27d"/>
        <path id="Path_28566" data-name="Path 28566" d="M-3212.717,1177.377s-7.181,33.01-8,37.966-7.355,28.292-5.93,34.14c.841,3.449,2.307,4.47,2.307,4.47.345.632-5.335,1.889-5.794-.532-.583-3.073-.7-7.387-1.558-14.7-1.469-12.591,1.445-19.757,2.151-25.018s-2.372-21.989-.663-27.7C-3227.212,1175.995-3220.554,1171.893-3212.717,1177.377Z" transform="translate(3234.436 -1122.998)" fill="#eb9d67"/>
        <path id="Path_28567" data-name="Path 28567" d="M-3212.848,1207.193a21.36,21.36,0,0,1-4.129,1.191l-.012,0a36.261,36.261,0,0,1-4.387.547,55.367,55.367,0,0,1-5.926.06l-.524-6.113-.552,2.213-.945,3.789c-.874-.061-1.659-.132-2.324-.2-1.427-.146-2.3-.281-2.3-.281-1.608-13.261.319-21.621,2.5-26.559h0a22.58,22.58,0,0,1,2.043-3.711c.343-.5.662-.909.941-1.241.228-.272.43-.49.6-.662a5.9,5.9,0,0,1,.516-.481c.744.286,1.477.527,2.192.729q.766.217,1.5.375l.024.005q.505.111.995.2c.121.021.242.042.361.061q.576.091,1.125.154a24.551,24.551,0,0,0,5.2.052,16.724,16.724,0,0,0,2.094-.327l.087-.021.01.338.175,5.765Z" transform="translate(3236.499 -1123.687)" fill="#2c3a64"/>
        <path id="Path_28568" data-name="Path 28568" d="M-3230.524,1639.158h-6.787c-.524-.952-1.222-3.8-1.754-4.395-.038-.042-.08-.091-.123-.146l-.054,4.541h-.61a50.821,50.821,0,0,0-.422-6.255,2.875,2.875,0,0,1-.509-1.648c.236-.589,2.409-1.9,2.409-1.9s1.608,8.043,2.369,8.235a12.226,12.226,0,0,0,4.154.225,2.436,2.436,0,0,1,1.218.839A.651.651,0,0,1-3230.524,1639.158Z" transform="translate(3241.798 -1506.987)" fill="#2c3a64"/>
        <path id="Path_28569" data-name="Path 28569" d="M-3171.919,1639.222h-6.787c-.518-.939-1.206-3.728-1.736-4.369l-.053,4.369h-.61c0-.129-.005-.3-.009-.5a51.73,51.73,0,0,0-.352-5.376c-.464-.813-.847-1.687-.713-2.022.235-.589,2.36-1.889,2.36-1.889s.009.071.032.187c0,.017.006.034.01.052s.009.047.013.073l.011.055c.309,1.556,1.568,7.66,2.351,7.856a12.237,12.237,0,0,0,4.292.206h.007S-3171.752,1638.514-3171.919,1639.222Z" transform="translate(3192.277 -1507.051)" fill="#2c3a64"/>
        <path id="Path_28570" data-name="Path 28570" d="M-3180.237,997.115c-.227,1.243-.458,2.316-.654,3.155-.014.06-.028.119-.041.176-.275,1.16-.471,1.83-.471,1.83l-.1.033-.047.016-.087.028q-.7.225-1.372.392a18.4,18.4,0,0,1-6.567.466,16.579,16.579,0,0,1-2.682-.533c-.179-.051-.352-.1-.517-.158l-.023-.007c-.427-.139-.811-.285-1.146-.426a10.177,10.177,0,0,1-1.667-.857l0,0a4.4,4.4,0,0,0,.223-.781,15.279,15.279,0,0,0,.239-2.194c.077-1.5.054-3.385-.028-5.452,0-.06,0-.121-.006-.181-.105-2.593-.3-5.467-.5-8.259-.154-2.144-.311-4.238-.437-6.117-.039-.576-.075-1.132-.105-1.662-.175-2.964-.223-5.148.041-5.722.4-.87,1.639-1.4,2.959-1.719.189-.046.38-.088.57-.126.026-.005-.056-.213-.03-.219.182-.035.473.136.651.108l.228-.035a21.828,21.828,0,0,1,2.461-.219l.061,0a16.294,16.294,0,0,1,2.023,1.249c.09.064,1.252-.692,1.345-.623a10.432,10.432,0,0,1,3.708,5.212c1.013,3.291,2.5,4.919,2.813,8.168A54.573,54.573,0,0,1-3180.237,997.115Z" transform="translate(3204.249 -948.69)" fill="#fff"/>
        <path id="Path_28571" data-name="Path 28571" d="M-3220.236,1003.676a22.924,22.924,0,0,0,9.541-.6,10.376,10.376,0,0,0,2.532-1.042c2.67-1.642,3.967-13.8,3.5-18.4s-8.2-14.031-8.2-14.031c-1.9,1.407-2.732,4.683-3.871,8.981C-3219.463,988.926-3220.236,1003.676-3220.236,1003.676Z" transform="translate(3224.412 -949.498)" fill="#e21f26"/>
        <path id="Path_28572" data-name="Path 28572" d="M-3220.236,1052.635a22.923,22.923,0,0,0,9.541-.6,15.134,15.134,0,0,0,2.443-5.788c1.359-6.706-4-13.984-8.472-18.7C-3219.463,1037.885-3220.236,1052.635-3220.236,1052.635Z" transform="translate(3224.412 -998.457)" fill="#b2060c"/>
        <path id="Path_28573" data-name="Path 28573" d="M-3199.365,1098.43l-5.949-4.294a1.655,1.655,0,0,0-2.3.372l-6.635,9.192a1.656,1.656,0,0,0,.372,2.3l5.949,4.294a1.655,1.655,0,0,0,2.3-.372l6.635-9.192A1.656,1.656,0,0,0-3199.365,1098.43Z" transform="translate(3219.619 -1054.465)" fill="#a53d38"/>
        <path id="Path_28574" data-name="Path 28574" d="M-3160.5,1152.76s2.908-.294,3.267.2a1.968,1.968,0,0,1-1.6,2.581,6.053,6.053,0,0,1-3.5-1.144Z" transform="translate(3175.477 -1104.191)" fill="#da935b"/>
        <path id="Path_28575" data-name="Path 28575" d="M-3235.619,969.6s-5.169.609-7.411,5.266-4.657,16.644-4.053,17.765,7.848,7.158,13.8,7.934a5.639,5.639,0,0,0,1.208-3.1s-8.02-5-8.71-6.382,6.123-12.849,6.037-14.833S-3235.619,969.6-3235.619,969.6Z" transform="translate(3247.177 -949.498)" fill="#e21f26"/>
        <path id="Path_28576" data-name="Path 28576" d="M-3147.744,863.2a3.849,3.849,0,0,1,3.2,3.871s1.327-5.546-3.475-5.435S-3147.744,863.2-3147.744,863.2Z" transform="translate(3165.131 -858.26)" fill="#2a2d31"/>
        <path id="Path_28577" data-name="Path 28577" d="M-3165.836,939.063s-.273-2.927-.209-3.68h0c.034-.387.073-.615.073-.615l-.073-.022-6.071-1.849c0,.048,0,.1-.006.145-.077,1.64-.172,2.912-.274,3.9-.012.129-.026.253-.039.372-.055.5-.113.922-.17,1.272a24.694,24.694,0,0,0,2.951,1.1c2.178.633,3.121.38,3.525,0C-3165.79,939.367-3165.828,939.112-3165.836,939.063Z" transform="translate(3184.164 -918.479)" fill="#ffb27d"/>
        <path id="Path_28578" data-name="Path 28578" d="M-3165.384,935.532v.639a12.949,12.949,0,0,0-5.871,1.557c.1-.987.2-2.26.273-3.9Z" transform="translate(3183.023 -919.267)" fill="#e8945b"/>
        <path id="Path_28579" data-name="Path 28579" d="M-3172.378,881.461s-7.356,1.477-8.206-3.118-2.371-7.5,2.29-8.637,5.9.447,6.557,1.911S-3170.487,880.958-3172.378,881.461Z" transform="translate(3191.693 -864.756)" fill="#ffb27d"/>
        <path id="Path_28580" data-name="Path 28580" d="M-3188.767,860.831s2.079,2.606-1.715,4.988-3.5,7.147-2.5,8.487c0,0-7.553-7.37-4.054-11.763S-3188.767,860.831-3188.767,860.831Z" transform="translate(3205.585 -856.9)" fill="#2a2d31"/>
      </g>
    </g>
    <g id="Group_20722" data-name="Group 20722" transform="translate(698.875 1374.806)">
      <g id="Group_20715" data-name="Group 20715" transform="translate(2.579 66.845)">
        <path id="Path_28581" data-name="Path 28581" d="M-2286.769,1603.944a3.028,3.028,0,0,1-3.028,3.028,3.027,3.027,0,0,1-3.027-3.028,3.027,3.027,0,0,1,3.027-3.027A3.028,3.028,0,0,1-2286.769,1603.944Z" transform="translate(2292.824 -1600.917)"/>
        <path id="Path_28582" data-name="Path 28582" d="M-2279.079,1603.944a3.028,3.028,0,0,1-3.028,3.028,3.027,3.027,0,0,1-3.027-3.028,3.027,3.027,0,0,1,3.027-3.027A3.028,3.028,0,0,1-2279.079,1603.944Z" transform="translate(2286.326 -1600.917)" fill="#33373e"/>
      </g>
      <g id="Group_20716" data-name="Group 20716" transform="translate(22.75 74.912)">
        <circle id="Ellipse_1550" data-name="Ellipse 1550" cx="3.028" cy="3.028" r="3.028"/>
        <circle id="Ellipse_1551" data-name="Ellipse 1551" cx="3.028" cy="3.028" r="3.028" transform="translate(1.192)" fill="#33373e"/>
      </g>
      <path id="Path_28583" data-name="Path 28583" d="M-2288.633,1599.274l3.35,3.115a3.9,3.9,0,0,0,1.158.745l22.557,9.38,4.191-3.016Z" transform="translate(2291.861 -1532.684)" fill="#33373e"/>
      <g id="Group_20717" data-name="Group 20717" transform="translate(34.438)">
        <path id="Path_28584" data-name="Path 28584" d="M-2071,1202.429l-1.074-.742c4.945-7.157,14.5-21.258,15.292-23.395a3.925,3.925,0,0,0,.01-3.342,4.276,4.276,0,0,0-2.635-1.774l-.069-.017-5.009-1.547c-5.736-2.286-8.19,2.218-8.292,2.41l-.034.058-13.386,20.225-1.089-.72,13.37-20.2a7.753,7.753,0,0,1,2.358-2.517c1.478-.995,3.982-1.884,7.531-.478l4.9,1.513a5.517,5.517,0,0,1,3.481,2.4,5.145,5.145,0,0,1,.083,4.444C-2056.593,1181.567-2070.407,1201.578-2071,1202.429Z" transform="translate(2087.28 -1169.66)" fill="#212326"/>
      </g>
      <path id="Path_28585" data-name="Path 28585" d="M-2123.764,1348.252l11.083,7.609s2.919,2.95-.432,8.843c-2.948,5.186-18.738,34.606-18.738,34.606s-3.287,6.122-16.088-1.539Z" transform="translate(2172.974 -1320.57)" fill="#b51414"/>
      <path id="Path_28586" data-name="Path 28586" d="M-2257.131,1322.922l-17.913,32.849a8.383,8.383,0,0,1-2.973,3.136,8.411,8.411,0,0,1-7.679.593l-11.271-4.74-.279-.117-7.058-2.969a8.442,8.442,0,0,1-1.93-1.13c-.135-.1-.265-.213-.392-.325a8.45,8.45,0,0,1-2.768-7.373,8.377,8.377,0,0,1,1.216-3.392l19.125-30.58a8.419,8.419,0,0,1,9.7-3.554l2.067.66.493.158h0l.414.133,6.909,2.205.848.271,6.667,2.129a8.41,8.41,0,0,1,2.769,1.5c.052.043.1.085.155.13l.316.285A8.42,8.42,0,0,1-2257.131,1322.922Z" transform="translate(2309.462 -1283.954)" fill="#e21f26"/>
      <path id="Path_28587" data-name="Path 28587" d="M-2277.91,1555.977a8.411,8.411,0,0,1-7.679.593l-11.271-4.74-.279-.116-7.058-2.969a8.451,8.451,0,0,1-1.93-1.13c-.135-.1-.265-.213-.392-.325-2.091-1.851-3.638-6-2.339-9.151,0,0,23.912,9.864,28.553,12.758C-2277.91,1552.389-2277.91,1554.51-2277.91,1555.977Z" transform="translate(2309.355 -1481.024)" fill="#b51414"/>
      <g id="Group_20721" data-name="Group 20721" transform="translate(2.225 22.024)">
        <g id="Group_20718" data-name="Group 20718">
          <path id="Path_28588" data-name="Path 28588" d="M-2264.255,1312.042c-.062.009-6.635.955-8.515,3.453-1.932,2.567-20.946,33.988-21.138,34.305a8.431,8.431,0,0,0,.122,6.755l-.321-.238q-.2-.157-.392-.325a7.567,7.567,0,0,1,.2-6.429c.784-1.3,19.219-31.759,21.164-34.345,1.7-2.265,6.46-3.215,7.977-3.467l.493.158h0Z" transform="translate(2295.109 -1311.751)" fill="#b51414"/>
        </g>
        <g id="Group_20719" data-name="Group 20719" transform="translate(9.853 2.496)">
          <path id="Path_28589" data-name="Path 28589" d="M-2202.784,1328.125a11.039,11.039,0,0,0-7.091,4.892c-2.732,4.4-20.174,37.427-20.349,37.759l-.013.024-.017.02a4.141,4.141,0,0,0-.588,3.438l-.283-.119-.279-.117a3.983,3.983,0,0,1,.783-3.484c.54-1.021,17.643-33.394,20.353-37.763a11.479,11.479,0,0,1,6.635-4.921Z" transform="translate(2231.541 -1327.854)" fill="#b51414"/>
        </g>
        <g id="Group_20720" data-name="Group 20720" transform="translate(20.388 6.394)">
          <path id="Path_28590" data-name="Path 28590" d="M-2135.442,1353.42a9.56,9.56,0,0,0-2.759.811,10.511,10.511,0,0,0-4.432,4.008c-2.731,4.4-19.544,37.558-19.713,37.891l-.013.026-.018.021a5.639,5.639,0,0,0-.389,3.807l-.71-.3a6,6,0,0,1,.731-3.788c.538-1.06,17.01-33.534,19.72-37.9a10.523,10.523,0,0,1,7.113-4.991c.052.042.1.085.155.13Z" transform="translate(2163.57 -1353.004)" fill="#b51414"/>
        </g>
      </g>
    </g>
    <g id="man" transform="translate(753.455 1307.517)">
      <g id="Group_20723" data-name="Group 20723" transform="translate(0 66.644)">
        <path id="Path_28591" data-name="Path 28591" d="M-1955.339,1613.438s-2.4,2.229-1.936,3.812,2.639,2.639,2.932,4.575,1.466,2.991,2.522,2.991h5.033s.777-1.362-1.1-1.772-2.584-2.685-2.467-4.8a37.8,37.8,0,0,0-.176-4.927l-3.988-.938Z" transform="translate(1957.336 -1543.116)" fill="#333"/>
        <path id="Path_28592" data-name="Path 28592" d="M-1740.919,1652.993h-13.365a1.169,1.169,0,0,1-.261-.078c-.891-.446-.613-3.853-.505-4.909.021-.2.035-.311.035-.311s4.693-3.753,5.338-.879c.02.09.044.178.07.265.811,2.688,4.454,3.911,6.558,4.251A2.291,2.291,0,0,1-1740.919,1652.993Z" transform="translate(1786.511 -1571.297)" fill="#333"/>
        <path id="Path_28593" data-name="Path 28593" d="M-1789.081,1189.439s-.713,8.891-1.55,19.578c-1.138,14.518-2.507,32.35-2.643,35.729-.234,5.866-1.174,15.25-1.174,15.25s-2.228,2.229-6.686,1.29a153.491,153.491,0,0,1-5.108-27.568c-.018-.232-.035-.466-.053-.7-1.056-14.428-2.7-44.809-2.7-44.809Z" transform="translate(1831.985 -1184.688)" fill="#212326"/>
        <path id="Path_28595" data-name="Path 28595" d="M-1906.8,1171.311s-12.844,32.2-21.29,47.331S-1939.178,1238-1939.178,1238s-4.839-1.936-5.278-3.255c0,0,3.23-29.213,8.885-36.334,3.2-4.024,6.95-16.1,7.126-20.322s1.144-12.58,1.144-12.58Z" transform="translate(1946.453 -1165.505)" fill="#33373e"/>
      </g>
      <path id="Path_28596" data-name="Path 28596" d="M-1630.687,1145.615l.734,1.463a3.287,3.287,0,0,1,2.706,4.414s-.554,1.6-1.583,1.095-.522-.464-2-1.146-2.329-1.992-2-3.194l-.236-1.274Z" transform="translate(1683.326 -1082.054)" fill="#ffb27d"/>
      <path id="Path_28597" data-name="Path 28597" d="M-1800.259,824.395a37.712,37.712,0,0,0,.589-5.37l-6.517-5.252a13.069,13.069,0,0,1-4.385,10.694s8.684,4.275,13.7,2.692A12.022,12.022,0,0,0-1800.259,824.395Z" transform="translate(1833.321 -801.646)" fill="#ffb27d"/>
      <path id="Path_28598" data-name="Path 28598" d="M-1784.393,772.114s-8.291,1.377-9.069-3.8-2.372-8.484,2.888-9.583,6.588.722,7.268,2.386S-1782.256,771.622-1784.393,772.114Z" transform="translate(1819.579 -754.855)" fill="#ffb27d"/>
      <path id="Path_28599" data-name="Path 28599" d="M-1805.8,749.358a8.581,8.581,0,0,1,7.722-8.046c5.174-.762,2.041-5.086,1.449-5.771,0,0-3.955.755-8,1.643C-1813.134,739.049-1806.7,748.327-1805.8,749.358Z" transform="translate(1831.975 -735.541)" fill="#2a2d31"/>
      <path id="Path_28600" data-name="Path 28600" d="M-1782.57,945.332a14.186,14.186,0,0,0,1.931-2.618s-9.42-11.7-10.186-12.917-6.486-20.68-6.486-20.68l-14.467-2.931s12.076,24.913,14.076,27.95c3.306,5.019,13.2,12.488,13.2,12.488A5.958,5.958,0,0,0-1782.57,945.332Z" transform="translate(1834.339 -879.736)" fill="#e21f26"/>
      <path id="Path_28601" data-name="Path 28601" d="M-1814.81,920.925a.813.813,0,0,1-.528.2c-1.885-.026-7.381,1.021-12.032.544a34.647,34.647,0,0,1-11.118-3.208c-.495-.222-1.634-.83-1.608-1.383.017-.606.077-1.484.152-2.59a138.546,138.546,0,0,0,.275-18.1c-.081-1.421-.123-2.831-.128-4.219-.038-10.345,1.978-19.495,6.1-22.574.352-.252,2.549.855,4.535,1.835a6.641,6.641,0,0,0,4.852.534l2.286,1.653a17.324,17.324,0,0,1,5.429,8.671c.855,3.443,1.357,9.652,1.634,16.086.125,2.916.226,5.857.252,8.647v.1c.025.277.025.579.025.855C-1814.583,915.144-1814.685,920.824-1814.81,920.925Z" transform="translate(1858.268 -848.79)" fill="#e21f26"/>
      <path id="Path_28602" data-name="Path 28602" d="M-1839.11,998.578a138.569,138.569,0,0,0,.275-18.1c-.081-1.421-.123-2.831-.128-4.219,1.717-4.165,3.12-7.186,3.12-7.186h4.328S-1828.341,990.751-1839.11,998.578Z" transform="translate(1857.435 -932.88)" fill="#c7131a"/>
      <g id="Group_20724" data-name="Group 20724" transform="translate(4.905 21.549)">
        <path id="Path_28603" data-name="Path 28603" d="M-1920.694,1161.316l-.821,1.416a3.287,3.287,0,0,1-2.209,4.682s-1.643.414-1.783-.724.1-.691-.137-2.3.389-3.04,1.575-3.423l.936-.9Z" transform="translate(1925.694 -1115.819)" fill="#ffb27d"/>
        <path id="Path_28604" data-name="Path 28604" d="M-1919.167,920.45a14.18,14.18,0,0,0,3.248.181s4.627-14.293,5.222-15.6,13.743-16.759,13.743-16.759l-5.477-13.707s-14.221,23.754-15.665,27.092c-2.386,5.516-3.214,17.882-3.214,17.882A5.954,5.954,0,0,0-1919.167,920.45Z" transform="translate(1921.989 -874.566)" fill="#e21f26"/>
      </g>
    </g>
    <path id="Path_28605" data-name="Path 28605" d="M-1769.839,846.537a10.257,10.257,0,0,0-5.033-4.607,9.277,9.277,0,0,0,5.369.888S-1769.673,845.42-1769.839,846.537Z" transform="translate(2556.609 482.078)" fill="#e8945b"/>
    <path id="Path_28611" data-name="Path 28611" d="M-3284.967,1689.254H-3692.64a.458.458,0,0,1-.458-.458h0a.458.458,0,0,1,.458-.458h407.673a.458.458,0,0,1,.458.458h0A.458.458,0,0,1-3284.967,1689.254Z" transform="translate(4177.51 -233.138)" fill="#283250"/>
    <text id="Travel_Insurance" data-name="Travel Insurance" transform="translate(585 1411)" fill="#333" font-size="17" font-family="Anton-Regular, Anton" letter-spacing="0.04em"><tspan x="0" y="0">Travel Insurance</tspan></text>
    <g id="Group_20814" data-name="Group 20814" transform="translate(115)">
      <path id="Path_28670" data-name="Path 28670" d="M-3377.138,1299.108h-9.67a6.474,6.474,0,0,1-6.466-6.466v-34.7a6.474,6.474,0,0,1,6.466-6.466h9.67a6.474,6.474,0,0,1,6.466,6.466v34.7A6.474,6.474,0,0,1-3377.138,1299.108Zm-9.67-45.91a4.747,4.747,0,0,0-4.742,4.742v34.7a4.747,4.747,0,0,0,4.742,4.742h9.67a4.747,4.747,0,0,0,4.742-4.742v-34.7a4.747,4.747,0,0,0-4.742-4.742Z" transform="translate(3794.622 123.759)" fill="#333"/>
      <path id="Path_28671" data-name="Path 28671" d="M-3313.972,1660.954h-1.471a3.03,3.03,0,0,0-3.03,3.03,3.03,3.03,0,0,0,3.03,3.03h1.471a3.03,3.03,0,0,0,3.03-3.03A3.03,3.03,0,0,0-3313.972,1660.954Z" transform="translate(3733.437 -211.188)" fill="#e21f26"/>
      <circle id="Ellipse_1556" data-name="Ellipse 1556" cx="3.03" cy="3.03" r="3.03" transform="translate(416.435 1449.766)" fill="#b51414"/>
      <path id="Path_28672" data-name="Path 28672" d="M-3416.6,1660.954h-1.471a3.03,3.03,0,0,0-3.03,3.03,3.03,3.03,0,0,0,3.03,3.03h1.471a3.03,3.03,0,0,0,3.03-3.03A3.03,3.03,0,0,0-3416.6,1660.954Z" transform="translate(3817.387 -211.188)" fill="#e21f26"/>
      <circle id="Ellipse_1557" data-name="Ellipse 1557" cx="3.03" cy="3.03" r="3.03" transform="translate(397.754 1449.766)" fill="#b51414"/>
      <rect id="Rectangle_13204" data-name="Rectangle 13204" width="38.976" height="56.04" rx="8" transform="translate(394.56 1394.846)" fill="#e21f26"/>
      <rect id="Rectangle_13205" data-name="Rectangle 13205" width="38.976" height="56.04" rx="8" transform="translate(386.369 1394.846)" fill="#b51414"/>
      <g id="Group_20813" data-name="Group 20813" transform="translate(386.369 1442.698)" opacity="0.4">
        <path id="Path_28673" data-name="Path 28673" d="M-3452.7,1622.123h-18.536a10.223,10.223,0,0,0-2.747.377,10.222,10.222,0,0,0,9.932,7.812h18.536a10.221,10.221,0,0,0,2.747-.376A10.222,10.222,0,0,0-3452.7,1622.123Z" transform="translate(3473.987 -1622.123)" fill="#d86713"/>
      </g>
      <path id="Path_28674" data-name="Path 28674" d="M-3404.615,1359.8h.921v-.575h-18.759a10.811,10.811,0,0,0-7.327,10.22v35.6a10.811,10.811,0,0,0,7.327,10.22h18.759v-.575h-.921a9.656,9.656,0,0,1-9.645-9.645v-35.6A9.656,9.656,0,0,1-3404.615,1359.8Zm-4.839,54.89h-9.531a9.656,9.656,0,0,1-9.645-9.645v-35.6a9.656,9.656,0,0,1,9.645-9.645h9.531a10.8,10.8,0,0,0-5.956,9.645v35.6A10.8,10.8,0,0,0-3409.454,1414.693Z" transform="translate(3824.483 35.618)" fill="#e21f26"/>
    </g>
  </g>
</svg>
